<svg width="1283" height="416" viewBox="0 0 1283 416" fill="none" xmlns="http://www.w3.org/2000/svg">
<path d="M1131.31 37.4671C1131.31 58.1596 1102.61 87.6889 1091.45 98.8493C1079.5 86.8917 1050 58.1596 1050 37.4671C1050 16.7746 1069.44 0 1091.45 0C1113.47 0 1131.31 16.7746 1131.31 37.4671Z" fill="#401936" fill-opacity="0.66"/>
<rect x="1086.67" y="92.4719" width="9.56606" height="6.37737" fill="#401936" fill-opacity="0.66"/>
<rect x="1085.08" y="103.632" width="12.7547" height="7.97172" rx="1" fill="#401936" fill-opacity="0.66"/>
<path d="M332.549 297.737C332.549 314.713 309.005 338.938 299.85 348.094C290.04 338.284 265.843 314.713 265.843 297.737C265.843 280.761 281.791 267 299.85 267C317.909 267 332.549 280.761 332.549 297.737Z" fill="#5D284F"/>
<rect x="295.926" y="342.862" width="7.84776" height="5.23184" fill="#5D284F"/>
<rect x="294.618" y="352.017" width="10.4637" height="6.5398" rx="1" fill="#5D284F"/>
<path d="M1282.24 295.475C1282.24 328.875 1235.92 376.538 1217.91 394.552C1198.61 375.252 1151 328.875 1151 295.475C1151 262.076 1182.38 235 1217.91 235C1253.44 235 1282.24 262.076 1282.24 295.475Z" fill="#401936"/>
<rect x="1210.19" y="384.258" width="15.4405" height="10.2937" fill="#401936"/>
<rect x="1207.62" y="402.272" width="20.5874" height="12.8671" rx="1" fill="#401936"/>
<path d="M426.086 328.143C426.086 339.267 410.657 355.143 404.657 361.143C398.229 354.714 382.372 339.267 382.372 328.143C382.372 317.018 392.823 308 404.657 308C416.492 308 426.086 317.018 426.086 328.143Z" fill="#5D284F" fill-opacity="0.78"/>
<rect x="402.086" y="357.714" width="5.14286" height="3.42857" fill="#5D284F" fill-opacity="0.78"/>
<rect x="401.229" y="363.714" width="6.85715" height="4.28572" rx="1" fill="#5D284F" fill-opacity="0.78"/>
<path d="M73.5488 75.7585C73.5488 94.4028 47.6912 121.009 37.6355 131.065C26.8615 120.291 0.285645 94.4028 0.285645 75.7585C0.285645 57.1142 17.8011 42 37.6355 42C57.4698 42 73.5488 57.1142 73.5488 75.7585Z" fill="#521F45" fill-opacity="0.49"/>
<rect x="33.3262" y="125.319" width="8.61919" height="5.74613" fill="#521F45" fill-opacity="0.49"/>
<rect x="31.8896" y="135.375" width="11.4923" height="7.18266" rx="1" fill="#521F45" fill-opacity="0.49"/>
</svg>
