<svg width="239" height="89" viewBox="0 0 239 89" fill="none" xmlns="http://www.w3.org/2000/svg">
<path d="M169 0L190.94 8.23529L204.522 16.4706L218.104 8.23529L239 0L220.194 15.4412L204.522 35L187.806 15.4412L169 0Z" fill="#401936"/>
<path d="M123.439 49L140.136 59.1571L149.984 68.0152L162.392 63.3786L180.792 59.8786L162.984 69.6073L147.105 83.1968L136.448 64.5739L123.439 49Z" fill="#401936"/>
<path d="M41.5649 17L54.5095 22.2628L62.4722 27.3907L70.7007 22.7013L83.2884 18.13L71.8299 27.0301L62.1731 38.4352L52.525 26.5073L41.5649 17Z" fill="#401936" fill-opacity="0.75"/>
<path d="M125.036 11.233L136.455 18.3806L145.461 28.2452L134.739 24.8137L129.592 22.6694L125.036 21.8116L119.299 22.6694L113.295 23.956L99.9998 28.2449L111.151 18.3809L125.036 11.233Z" fill="#401936" fill-opacity="0.85"/>
<path d="M42.4488 47.344L50.4067 52.3255L56.6834 59.2005L49.2109 56.809L45.6241 55.3145L42.4488 54.7167L38.4505 55.3145L34.2658 56.2112L24.9999 59.2004L32.7714 52.3257L42.4488 47.344Z" fill="#401936" fill-opacity="0.65"/>
<path d="M12.2632 24.2035L18.9602 27.2183L24.5557 31.8795L18.5101 30.8203L15.5713 30.0433L13.0468 29.9175L10.0116 30.8058L6.86369 31.9455L6.78631e-05 35.2471L5.29246 29.093L12.2632 24.2035Z" fill="#401936" fill-opacity="0.65"/>
</svg>
