<svg width="1813" height="417" viewBox="0 0 1813 417" fill="none" xmlns="http://www.w3.org/2000/svg">
<path d="M-24.9645 0L16.7812 27.3644L75.6276 112.567H162.137L207.906 165.43L262.729 118.164L267.758 107.592L274.297 102.616L284.859 107.592L291.9 118.164L312.522 177.868L358.291 162.321L392.995 165.43L421.161 177.868L487.48 207.721L676.44 235.085L778.263 212.696L818.5 207.721L888.914 250.633L943.737 235.085H1001.58L1061.43 259.34L1123.8 235.085L1225.39 196.526L1358.18 187.197H1610.66L1634.8 126.249L1650.9 63.4356L1740.43 33.5836L1799.77 11.8164L1838 121.298V454H-31L-24.9645 0Z" fill="url(#paint0_linear_69_312)" fill-opacity="0.8"/>
<defs>
<linearGradient id="paint0_linear_69_312" x1="-31" y1="276.753" x2="1838" y2="276.753" gradientUnits="userSpaceOnUse">
<stop offset="0.208681" stop-color="#141023"/>
<stop offset="0.5" stop-color="#361124"/>
<stop offset="0.764613" stop-color="#141023"/>
</linearGradient>
</defs>
</svg>
