<svg width="1782" height="378" viewBox="0 0 1782 378" fill="none" xmlns="http://www.w3.org/2000/svg">
<rect x="580.664" y="168.339" width="6.15848" height="6.15848" rx="2" transform="rotate(-68.1835 580.664 168.339)" fill="#D9D9D9" fill-opacity="0.4"/>
<rect x="602.502" y="192.178" width="6.15848" height="6.15848" rx="2" transform="rotate(-68.1835 602.502 192.178)" fill="#D9D9D9" fill-opacity="0.4"/>
<rect x="554.811" y="201.503" width="6.15848" height="6.15848" rx="2" transform="rotate(-68.1835 554.811 201.503)" fill="#D9D9D9" fill-opacity="0.4"/>
<rect x="576.649" y="225.343" width="6.15848" height="6.15848" rx="2" transform="rotate(-68.1835 576.649 225.343)" fill="#D9D9D9" fill-opacity="0.4"/>
<rect x="604.21" y="182.152" width="4.10565" height="4.10565" rx="2" transform="rotate(-68.1835 604.21 182.152)" fill="#D9D9D9"/>
<rect x="568.732" y="173.838" width="6.15848" height="6.15848" rx="2" transform="rotate(-68.1835 568.732 173.838)" fill="#D9D9D9"/>
<rect x="626.693" y="219.441" width="5.7772" height="5.7772" rx="2" transform="rotate(-68.1835 626.693 219.441)" fill="#D9D9D9"/>
<rect x="466.03" y="239.774" width="6.15848" height="6.15848" rx="2" transform="rotate(-68.1835 466.03 239.774)" fill="#D9D9D9"/>
<rect x="487.868" y="263.614" width="6.15848" height="6.15848" rx="2" transform="rotate(-68.1835 487.868 263.614)" fill="#D9D9D9"/>
<rect x="444.599" y="260.955" width="6.15848" height="6.15848" rx="2" transform="rotate(-68.1835 444.599 260.955)" fill="#D9D9D9" fill-opacity="0.4"/>
<rect x="466.438" y="284.794" width="6.15848" height="6.15848" rx="2" transform="rotate(-68.1835 466.438 284.794)" fill="#D9D9D9" fill-opacity="0.4"/>
<rect x="584.429" y="174.672" width="5.7772" height="5.7772" rx="2" transform="rotate(-68.1835 584.429 174.672)" fill="#D9D9D9" fill-opacity="0.4"/>
<rect x="513.853" y="197.387" width="6.15848" height="6.15848" rx="2" transform="rotate(-68.1835 513.853 197.387)" fill="#D9D9D9" fill-opacity="0.4"/>
<rect x="535.691" y="221.227" width="6.15848" height="6.15848" rx="2" transform="rotate(-68.1835 535.691 221.227)" fill="#D9D9D9" fill-opacity="0.4"/>
<rect x="418.746" y="294.119" width="6.15848" height="6.15848" rx="2" transform="rotate(-68.1835 418.746 294.119)" fill="#D9D9D9" fill-opacity="0.4"/>
<rect x="349.678" y="366.469" width="7.59094" height="7.59094" rx="2" transform="rotate(-68.1835 349.678 366.469)" fill="#D9D9D9" fill-opacity="0.4"/>
<rect x="535.152" y="267.136" width="6.15848" height="6.15848" rx="2" transform="rotate(-68.1835 535.152 267.136)" fill="#D9D9D9"/>
<rect x="524.971" y="211.702" width="6.15848" height="6.15848" rx="2" transform="rotate(-68.1835 524.971 211.702)" fill="#D9D9D9"/>
<rect x="468.145" y="274.768" width="4.10565" height="4.10565" rx="2" transform="rotate(-68.1835 468.145 274.768)" fill="#D9D9D9"/>
<rect x="517.919" y="228.769" width="4.10565" height="4.10565" rx="2" transform="rotate(-68.1835 517.919 228.769)" fill="#D9D9D9"/>
<rect x="539.758" y="252.609" width="4.10565" height="4.10565" rx="2" transform="rotate(-68.1835 539.758 252.609)" fill="#D9D9D9"/>
<rect x="467.134" y="231.382" width="4.10565" height="4.10565" rx="2" transform="rotate(-68.1835 467.134 231.382)" fill="#D9D9D9"/>
<rect x="488.973" y="255.222" width="4.10565" height="4.10565" rx="2" transform="rotate(-68.1835 488.973 255.222)" fill="#D9D9D9"/>
<rect x="488.076" y="214.043" width="4.10565" height="4.10565" rx="2" transform="rotate(-68.1835 488.076 214.043)" fill="#D9D9D9"/>
<rect x="509.914" y="237.884" width="4.10565" height="4.10565" rx="2" transform="rotate(-68.1835 509.914 237.884)" fill="#D9D9D9"/>
<rect x="410.829" y="242.615" width="6.15848" height="6.15848" rx="2" transform="rotate(-68.1835 410.829 242.615)" fill="#D9D9D9"/>
<rect x="432.667" y="266.454" width="6.15848" height="6.15848" rx="2" transform="rotate(-68.1835 432.667 266.454)" fill="#D9D9D9"/>
<rect x="499.321" y="25.5671" width="6.93338" height="6.93338" rx="2" transform="rotate(-43.4367 499.321 25.5671)" fill="#D9D9D9"/>
<rect x="490.954" y="75.1333" width="5.67905" height="5.67905" rx="2" transform="rotate(-43.4367 490.954 75.1333)" fill="#D9D9D9"/>
<rect x="994.011" y="7.7439" width="5.8206" height="5.8206" rx="2" transform="rotate(-43.4367 994.011 7.7439)" fill="#D9D9D9" fill-opacity="0.4"/>
<rect x="380.515" y="67.3545" width="6.57188" height="6.57188" rx="2" transform="rotate(-43.4367 380.515 67.3545)" fill="#D9D9D9" fill-opacity="0.4"/>
<rect x="1003.32" y="36.8467" width="5.8206" height="5.8206" rx="2" transform="rotate(-43.4367 1003.32 36.8467)" fill="#D9D9D9" fill-opacity="0.4"/>
<rect x="568.192" y="4.76709" width="6.93338" height="6.93338" rx="2" transform="rotate(-43.4367 568.192 4.76709)" fill="#D9D9D9" fill-opacity="0.4"/>
<rect x="579.286" y="39.4338" width="6.93338" height="6.93338" rx="2" transform="rotate(-43.4367 579.286 39.4338)" fill="#D9D9D9" fill-opacity="0.4"/>
<rect x="195.996" y="36.5852" width="7.43524" height="7.43524" rx="2" transform="rotate(-43.4367 195.996 36.5852)" fill="#D9D9D9" fill-opacity="0.4"/>
<rect x="371.095" y="223.231" width="7.43524" height="7.43524" rx="2" transform="rotate(-60.3933 371.095 223.231)" fill="#D9D9D9" fill-opacity="0.4"/>
<rect x="878.686" y="134.01" width="7.43524" height="7.43524" rx="2" transform="rotate(-43.4367 878.686 134.01)" fill="#D9D9D9" fill-opacity="0.4"/>
<rect x="961.899" y="16.656" width="3.55717" height="3.55717" rx="1.77859" transform="rotate(-43.4367 961.899 16.656)" fill="#D9D9D9" fill-opacity="0.4"/>
<rect x="207.892" y="73.7617" width="7.43524" height="7.43524" rx="2" transform="rotate(-43.4367 207.892 73.7617)" fill="#D9D9D9" fill-opacity="0.4"/>
<rect x="393.316" y="255.322" width="7.43524" height="7.43524" rx="2" transform="rotate(-60.3933 393.316 255.322)" fill="#D9D9D9" fill-opacity="0.4"/>
<rect x="968.012" y="55.0847" width="5.8206" height="5.8206" rx="2" transform="rotate(-43.4367 968.012 55.0847)" fill="#D9D9D9" fill-opacity="0.4"/>
<rect x="549.187" y="107.42" width="8.64836" height="8.64836" rx="2" transform="rotate(-43.4367 549.187 107.42)" fill="#D9D9D9"/>
<rect x="572.814" y="24.6428" width="6.93338" height="6.93338" rx="2" transform="rotate(-43.4367 572.814 24.6428)" fill="#D9D9D9"/>
<rect x="386.649" y="58.4001" width="4.38125" height="4.38125" rx="2" transform="rotate(-43.4367 386.649 58.4001)" fill="#D9D9D9"/>
<rect x="557.561" y="38.7693" width="4.62225" height="4.62225" rx="2" transform="rotate(-43.4367 557.561 38.7693)" fill="#D9D9D9"/>
<rect x="563.601" y="91.6008" width="5.76558" height="5.76558" rx="2" transform="rotate(-43.4367 563.601 91.6008)" fill="#D9D9D9"/>
<rect x="504.405" y="17.5071" width="4.62225" height="4.62225" rx="2" transform="rotate(-43.4367 504.405 17.5071)" fill="#D9D9D9"/>
<rect x="515.499" y="52.1741" width="4.62225" height="4.62225" rx="2" transform="rotate(-43.4367 515.499 52.1741)" fill="#D9D9D9"/>
<rect x="533.988" y="9.64917" width="4.62225" height="4.62225" rx="2" transform="rotate(-43.4367 533.988 9.64917)" fill="#D9D9D9"/>
<rect x="545.081" y="44.3164" width="4.62225" height="4.62225" rx="2" transform="rotate(-43.4367 545.081 44.3164)" fill="#D9D9D9"/>
<rect x="225.241" y="13.2883" width="7.43524" height="7.43524" rx="2" transform="rotate(-43.4367 225.241 13.2883)" fill="#D9D9D9"/>
<rect x="1672.86" y="-3.71191" width="7.43524" height="7.43524" rx="2" transform="rotate(-43.4367 1672.86 -3.71191)" fill="#D9D9D9"/>
<rect x="981.594" y="7.7439" width="5.8206" height="5.8206" rx="2" transform="rotate(-43.4367 981.594 7.7439)" fill="#D9D9D9"/>
<rect x="391.78" y="104.582" width="6.16501" height="6.16501" rx="2" transform="rotate(-43.4367 391.78 104.582)" fill="#D9D9D9"/>
<rect x="79.3096" y="33.6785" width="7.43524" height="7.43524" rx="2" transform="rotate(-43.4367 79.3096 33.6785)" fill="#D9D9D9"/>
<rect x="1525.31" y="98.6782" width="7.43524" height="7.43524" rx="2" transform="rotate(-43.4367 1525.31 98.6782)" fill="#D9D9D9"/>
<rect x="258.633" y="254.482" width="7.43524" height="7.43524" rx="2" transform="rotate(-60.3933 258.633 254.482)" fill="#D9D9D9"/>
<rect x="1723.27" y="189.464" width="7.43524" height="7.43524" rx="2" transform="rotate(-60.3933 1723.27 189.464)" fill="#D9D9D9"/>
<rect x="434.367" y="28.418" width="7.43524" height="7.43524" rx="2" transform="rotate(-43.4367 434.367 28.418)" fill="#D9D9D9"/>
<rect x="91.2051" y="70.8547" width="7.43524" height="7.43524" rx="2" transform="rotate(-43.4367 91.2051 70.8547)" fill="#D9D9D9"/>
<rect x="1537.21" y="135.854" width="7.43524" height="7.43524" rx="2" transform="rotate(-43.4367 1537.21 135.854)" fill="#D9D9D9"/>
<rect x="280.854" y="286.573" width="7.43524" height="7.43524" rx="2" transform="rotate(-60.3933 280.854 286.573)" fill="#D9D9D9"/>
<rect x="1745.49" y="221.555" width="7.43524" height="7.43524" rx="2" transform="rotate(-60.3933 1745.49 221.555)" fill="#D9D9D9"/>
<rect x="446.262" y="65.5942" width="7.43524" height="7.43524" rx="2" transform="rotate(-43.4367 446.262 65.5942)" fill="#D9D9D9"/>
<rect x="1758.72" y="23.896" width="7.43524" height="7.43524" rx="2" transform="rotate(-43.4367 1758.72 23.896)" fill="#D9D9D9"/>
<rect x="879.657" y="52.2561" width="5.83538" height="5.83538" rx="2" transform="rotate(-43.4367 879.657 52.2561)" fill="#D9D9D9"/>
<rect x="1352.13" y="48.8301" width="6.39865" height="6.39865" rx="2" transform="rotate(-43.4367 1352.13 48.8301)" fill="#D9D9D9"/>
<rect x="45.1069" y="46.0706" width="7.43524" height="7.43524" rx="2" transform="rotate(-43.4367 45.1069 46.0706)" fill="#D9D9D9" fill-opacity="0.4"/>
<rect x="1491.11" y="111.07" width="7.43524" height="7.43524" rx="2" transform="rotate(-43.4367 1491.11 111.07)" fill="#D9D9D9" fill-opacity="0.4"/>
<rect x="229.532" y="276.311" width="7.43524" height="7.43524" rx="2" transform="rotate(-60.3933 229.532 276.311)" fill="#D9D9D9" fill-opacity="0.4"/>
<rect x="1694.17" y="211.293" width="7.43524" height="7.43524" rx="2" transform="rotate(-60.3933 1694.17 211.293)" fill="#D9D9D9" fill-opacity="0.4"/>
<rect x="265" y="16.1121" width="7.43524" height="7.43524" rx="2" transform="rotate(-43.4367 265 16.1121)" fill="#D9D9D9" fill-opacity="0.4"/>
<rect x="1712.62" y="-0.888184" width="7.43524" height="7.43524" rx="2" transform="rotate(-43.4367 1712.62 -0.888184)" fill="#D9D9D9" fill-opacity="0.4"/>
<rect x="851.146" y="39.3774" width="4.7342" height="4.7342" rx="2" transform="rotate(-43.4367 851.146 39.3774)" fill="#D9D9D9" fill-opacity="0.4"/>
<rect x="57.0039" y="83.2466" width="7.43524" height="7.43524" rx="2" transform="rotate(-43.4367 57.0039 83.2466)" fill="#D9D9D9" fill-opacity="0.4"/>
<rect x="1503" y="148.246" width="7.43524" height="7.43524" rx="2" transform="rotate(-43.4367 1503 148.246)" fill="#D9D9D9" fill-opacity="0.4"/>
<rect x="251.754" y="308.401" width="7.43524" height="7.43524" rx="2" transform="rotate(-60.3933 251.754 308.401)" fill="#D9D9D9" fill-opacity="0.4"/>
<rect x="1697.75" y="373.4" width="7.43524" height="7.43524" rx="2" transform="rotate(-60.3933 1697.75 373.4)" fill="#D9D9D9" fill-opacity="0.4"/>
<rect x="276.897" y="53.2881" width="7.43524" height="7.43524" rx="2" transform="rotate(-43.4367 276.897 53.2881)" fill="#D9D9D9" fill-opacity="0.4"/>
<rect x="1724.52" y="36.2878" width="7.43524" height="7.43524" rx="2" transform="rotate(-43.4367 1724.52 36.2878)" fill="#D9D9D9" fill-opacity="0.4"/>
<rect x="1277.09" y="74.1929" width="9.14382" height="9.14382" rx="2" transform="rotate(-43.4367 1277.09 74.1929)" fill="#D9D9D9" fill-opacity="0.4"/>
<rect x="994.736" y="14.6697" width="5.46024" height="5.46024" rx="2" transform="rotate(-43.4367 994.736 14.6697)" fill="#D9D9D9" fill-opacity="0.4"/>
<rect x="153.166" y="11.3726" width="7.43524" height="7.43524" rx="2" transform="rotate(-43.4367 153.166 11.3726)" fill="#D9D9D9" fill-opacity="0.4"/>
<rect x="508.223" y="6.11206" width="7.43524" height="7.43524" rx="2" transform="rotate(-43.4367 508.223 6.11206)" fill="#D9D9D9" fill-opacity="0.4"/>
<rect x="165.062" y="48.5488" width="7.43524" height="7.43524" rx="2" transform="rotate(-43.4367 165.062 48.5488)" fill="#D9D9D9" fill-opacity="0.4"/>
<rect x="1612.68" y="31.5486" width="7.43524" height="7.43524" rx="2" transform="rotate(-43.4367 1612.68 31.5486)" fill="#D9D9D9" fill-opacity="0.4"/>
<rect x="344.995" y="243.697" width="7.43524" height="7.43524" rx="2" transform="rotate(-60.3933 344.995 243.697)" fill="#D9D9D9" fill-opacity="0.4"/>
<rect x="847.753" y="145.974" width="7.43524" height="7.43524" rx="2" transform="rotate(-43.4367 847.753 145.974)" fill="#D9D9D9" fill-opacity="0.4"/>
<rect x="520.12" y="43.2883" width="7.43524" height="7.43524" rx="2" transform="rotate(-43.4367 520.12 43.2883)" fill="#D9D9D9" fill-opacity="0.4"/>
<rect x="384.956" y="18.5903" width="7.43524" height="7.43524" rx="2" transform="rotate(-43.4367 384.956 18.5903)" fill="#D9D9D9" fill-opacity="0.4"/>
<rect x="1415.69" y="29.6343" width="6.39865" height="6.39865" rx="2" transform="rotate(-43.4367 1415.69 29.6343)" fill="#D9D9D9" fill-opacity="0.4"/>
<rect y="69.3674" width="7.43524" height="7.43524" rx="2" transform="rotate(-43.4367 0 69.3674)" fill="#D9D9D9" fill-opacity="0.4"/>
<rect x="1446" y="134.367" width="7.43524" height="7.43524" rx="2" transform="rotate(-43.4367 1446 134.367)" fill="#D9D9D9" fill-opacity="0.4"/>
<rect x="730.479" y="87.4338" width="7.74657" height="7.74657" rx="2" transform="rotate(-43.4367 730.479 87.4338)" fill="#D9D9D9" fill-opacity="0.4"/>
<rect x="11.8965" y="106.544" width="7.43524" height="7.43524" rx="2" transform="rotate(-43.4367 11.8965 106.544)" fill="#D9D9D9" fill-opacity="0.4"/>
<rect x="1457.9" y="171.543" width="7.43524" height="7.43524" rx="2" transform="rotate(-43.4367 1457.9 171.543)" fill="#D9D9D9" fill-opacity="0.4"/>
<rect x="830" y="77.8823" width="4.7342" height="4.7342" rx="2" transform="rotate(-43.4367 830 77.8823)" fill="#D9D9D9" fill-opacity="0.4"/>
<rect x="1221.62" y="102.844" width="9.14382" height="9.14382" rx="2" transform="rotate(-43.4367 1221.62 102.844)" fill="#D9D9D9" fill-opacity="0.4"/>
<rect x="141.27" y="98.6128" width="7.43524" height="7.43524" rx="2" transform="rotate(-43.4367 141.27 98.6128)" fill="#D9D9D9"/>
<rect x="1588.89" y="81.6125" width="7.43524" height="7.43524" rx="2" transform="rotate(-43.4367 1588.89 81.6125)" fill="#D9D9D9"/>
<rect x="336.838" y="298.523" width="7.43524" height="7.43524" rx="2" transform="rotate(-60.3933 336.838 298.523)" fill="#D9D9D9"/>
<rect x="823.961" y="196.038" width="7.43524" height="7.43524" rx="2" transform="rotate(-43.4367 823.961 196.038)" fill="#D9D9D9"/>
<rect x="361.163" y="68.6543" width="7.43524" height="7.43524" rx="2" transform="rotate(-43.4367 361.163 68.6543)" fill="#D9D9D9"/>
<rect x="170.996" y="154.972" width="8.3008" height="8.3008" rx="2" transform="rotate(-43.4367 170.996 154.972)" fill="#D9D9D9"/>
<rect x="1618.61" y="137.972" width="8.3008" height="8.3008" rx="2" transform="rotate(-43.4367 1618.61 137.972)" fill="#D9D9D9"/>
<rect x="390.889" y="125.014" width="8.3008" height="8.3008" rx="2" transform="rotate(-43.4367 390.889 125.014)" fill="#D9D9D9"/>
<rect x="942.279" y="118.274" width="6.51469" height="6.51469" rx="2" transform="rotate(-43.4367 942.279 118.274)" fill="#D9D9D9"/>
<rect x="1405.45" y="104.712" width="6.39865" height="6.39865" rx="2" transform="rotate(-43.4367 1405.45 104.712)" fill="#D9D9D9"/>
<rect x="158.123" y="32.687" width="7.43524" height="7.43524" rx="2" transform="rotate(-43.4367 158.123 32.687)" fill="#D9D9D9"/>
<rect x="1605.74" y="15.6868" width="7.43524" height="7.43524" rx="2" transform="rotate(-43.4367 1605.74 15.6868)" fill="#D9D9D9"/>
<rect x="333.731" y="230.548" width="7.43524" height="7.43524" rx="2" transform="rotate(-60.3933 333.731 230.548)" fill="#D9D9D9"/>
<rect x="1781.35" y="213.548" width="7.43524" height="7.43524" rx="2" transform="rotate(-60.3933 1781.35 213.548)" fill="#D9D9D9"/>
<rect x="840.812" y="130.112" width="7.43524" height="7.43524" rx="2" transform="rotate(-43.4367 840.812 130.112)" fill="#D9D9D9"/>
<rect x="513.18" y="27.4265" width="7.43524" height="7.43524" rx="2" transform="rotate(-43.4367 513.18 27.4265)" fill="#D9D9D9"/>
<rect x="1419.95" y="47.9768" width="6.39865" height="6.39865" rx="2" transform="rotate(-43.4367 1419.95 47.9768)" fill="#D9D9D9"/>
<rect x="63.9429" y="73.116" width="4.95683" height="4.95683" rx="2" transform="rotate(-43.4367 63.9429 73.116)" fill="#D9D9D9"/>
<rect x="1509.94" y="138.116" width="4.95683" height="4.95683" rx="2" transform="rotate(-43.4367 1509.94 138.116)" fill="#D9D9D9"/>
<rect x="255.437" y="296.687" width="4.95683" height="4.95683" rx="2" transform="rotate(-60.3933 255.437 296.687)" fill="#D9D9D9"/>
<rect x="1720.08" y="231.669" width="4.95683" height="4.95683" rx="2" transform="rotate(-60.3933 1720.08 231.669)" fill="#D9D9D9"/>
<rect x="419" y="67.8555" width="4.95683" height="4.95683" rx="2" transform="rotate(-43.4367 419 67.8555)" fill="#D9D9D9"/>
<rect x="283.836" y="43.1575" width="4.95683" height="4.95683" rx="2" transform="rotate(-43.4367 283.836 43.1575)" fill="#D9D9D9"/>
<rect x="1731.45" y="26.1572" width="4.95683" height="4.95683" rx="2" transform="rotate(-43.4367 1731.45 26.1572)" fill="#D9D9D9"/>
<rect x="84.668" y="126.507" width="5.53387" height="5.53387" rx="2" transform="rotate(-43.4367 84.668 126.507)" fill="#D9D9D9"/>
<rect x="1530.67" y="191.507" width="5.53387" height="5.53387" rx="2" transform="rotate(-43.4367 1530.67 191.507)" fill="#D9D9D9"/>
<rect x="304.561" y="96.5488" width="5.53387" height="5.53387" rx="2" transform="rotate(-43.4367 304.561 96.5488)" fill="#D9D9D9"/>
<rect x="1752.18" y="79.5486" width="5.53387" height="5.53387" rx="2" transform="rotate(-43.4367 1752.18 79.5486)" fill="#D9D9D9"/>
<rect x="874.526" y="95.9336" width="4.34312" height="4.34312" rx="2" transform="rotate(-43.4367 874.526 95.9336)" fill="#D9D9D9"/>
<rect x="1300.25" y="107.453" width="6.09588" height="6.09588" rx="2" transform="rotate(-43.4367 1300.25 107.453)" fill="#D9D9D9"/>
<rect x="141.765" y="47.8362" width="4.95683" height="4.95683" rx="2" transform="rotate(-43.4367 141.765 47.8362)" fill="#D9D9D9"/>
<rect x="1589.38" y="30.8359" width="4.95683" height="4.95683" rx="2" transform="rotate(-43.4367 1589.38 30.8359)" fill="#D9D9D9"/>
<rect x="322.503" y="249.809" width="4.95683" height="4.95683" rx="2" transform="rotate(-60.3933 322.503 249.809)" fill="#D9D9D9"/>
<rect x="1768.5" y="314.809" width="4.95683" height="4.95683" rx="2" transform="rotate(-60.3933 1768.5 314.809)" fill="#D9D9D9"/>
<rect x="824.455" y="145.261" width="4.95683" height="4.95683" rx="2" transform="rotate(-43.4367 824.455 145.261)" fill="#D9D9D9"/>
<rect x="496.822" y="42.5757" width="4.95683" height="4.95683" rx="2" transform="rotate(-43.4367 496.822 42.5757)" fill="#D9D9D9"/>
<rect x="153.662" y="85.0125" width="4.95683" height="4.95683" rx="2" transform="rotate(-43.4367 153.662 85.0125)" fill="#D9D9D9"/>
<rect x="1601.28" y="68.0122" width="4.95683" height="4.95683" rx="2" transform="rotate(-43.4367 1601.28 68.0122)" fill="#D9D9D9"/>
<rect x="344.725" y="281.9" width="4.95683" height="4.95683" rx="2" transform="rotate(-60.3933 344.725 281.9)" fill="#D9D9D9"/>
<rect x="836.352" y="182.438" width="4.95683" height="4.95683" rx="2" transform="rotate(-43.4367 836.352 182.438)" fill="#D9D9D9"/>
<rect x="373.555" y="55.054" width="4.95683" height="4.95683" rx="2" transform="rotate(-43.4367 373.555 55.054)" fill="#D9D9D9"/>
<rect x="1405.88" y="61.0142" width="4.26577" height="4.26577" rx="2" transform="rotate(-43.4367 1405.88 61.0142)" fill="#D9D9D9"/>
<rect x="84.7612" y="25.0347" width="4.95683" height="4.95683" rx="2" transform="rotate(-43.4367 84.7612 25.0347)" fill="#D9D9D9"/>
<rect x="1530.76" y="90.0344" width="4.95683" height="4.95683" rx="2" transform="rotate(-43.4367 1530.76 90.0344)" fill="#D9D9D9"/>
<rect x="439.818" y="19.7742" width="4.95683" height="4.95683" rx="2" transform="rotate(-43.4367 439.818 19.7742)" fill="#D9D9D9"/>
<rect x="874.6" y="16.2954" width="3.89025" height="3.89025" rx="1.94513" transform="rotate(-43.4367 874.6 16.2954)" fill="#D9D9D9"/>
<rect x="96.6582" y="62.2112" width="4.95683" height="4.95683" rx="2" transform="rotate(-43.4367 96.6582 62.2112)" fill="#D9D9D9"/>
<rect x="1542.66" y="127.211" width="4.95683" height="4.95683" rx="2" transform="rotate(-43.4367 1542.66 127.211)" fill="#D9D9D9"/>
<rect x="283.549" y="276.715" width="4.95683" height="4.95683" rx="2" transform="rotate(-60.3933 283.549 276.715)" fill="#D9D9D9"/>
<rect x="1748.19" y="211.697" width="4.95683" height="4.95683" rx="2" transform="rotate(-60.3933 1748.19 211.697)" fill="#D9D9D9"/>
<rect x="779.349" y="159.636" width="4.95683" height="4.95683" rx="2" transform="rotate(-43.4367 779.349 159.636)" fill="#D9D9D9"/>
<rect x="451.715" y="56.9507" width="4.95683" height="4.95683" rx="2" transform="rotate(-43.4367 451.715 56.9507)" fill="#D9D9D9"/>
<rect x="1764.17" y="15.2524" width="4.95683" height="4.95683" rx="2" transform="rotate(-43.4367 1764.17 15.2524)" fill="#D9D9D9"/>
<rect x="883.937" y="45.4722" width="3.89025" height="3.89025" rx="1.94513" transform="rotate(-43.4367 883.937 45.4722)" fill="#D9D9D9"/>
<rect x="1356.82" y="41.3916" width="4.26577" height="4.26577" rx="2" transform="rotate(-43.4367 1356.82 41.3916)" fill="#D9D9D9"/>
<rect x="116.485" y="16.6079" width="4.95683" height="4.95683" rx="2" transform="rotate(-43.4367 116.485 16.6079)" fill="#D9D9D9"/>
<rect x="1562.49" y="81.6077" width="4.95683" height="4.95683" rx="2" transform="rotate(-43.4367 1562.49 81.6077)" fill="#D9D9D9"/>
<rect x="471.542" y="11.3474" width="4.95683" height="4.95683" rx="2" transform="rotate(-43.4367 471.542 11.3474)" fill="#D9D9D9"/>
<rect x="899.498" y="9.68164" width="3.89025" height="3.89025" rx="1.94513" transform="rotate(-43.4367 899.498 9.68164)" fill="#D9D9D9"/>
<rect x="128.382" y="53.7844" width="4.95683" height="4.95683" rx="2" transform="rotate(-43.4367 128.382 53.7844)" fill="#D9D9D9"/>
<rect x="1576" y="36.7842" width="4.95683" height="4.95683" rx="2" transform="rotate(-43.4367 1576 36.7842)" fill="#D9D9D9"/>
<rect x="311.436" y="259.402" width="4.95683" height="4.95683" rx="2" transform="rotate(-60.3933 311.436 259.402)" fill="#D9D9D9"/>
<rect x="1776.08" y="194.385" width="4.95683" height="4.95683" rx="2" transform="rotate(-60.3933 1776.08 194.385)" fill="#D9D9D9"/>
<rect x="811.072" y="151.209" width="4.95683" height="4.95683" rx="2" transform="rotate(-43.4367 811.072 151.209)" fill="#D9D9D9"/>
<rect x="483.439" y="48.5239" width="4.95683" height="4.95683" rx="2" transform="rotate(-43.4367 483.439 48.5239)" fill="#D9D9D9"/>
<rect x="908.834" y="38.8589" width="3.89025" height="3.89025" rx="1.94513" transform="rotate(-43.4367 908.834 38.8589)" fill="#D9D9D9"/>
<rect x="1384.12" y="34.1396" width="4.26577" height="4.26577" rx="2" transform="rotate(-43.4367 1384.12 34.1396)" fill="#D9D9D9"/>
<rect x="17.3486" y="8.89429" width="7.43524" height="7.43524" rx="2" transform="rotate(-43.4367 17.3486 8.89429)" fill="#D9D9D9"/>
<rect x="1463.35" y="73.894" width="7.43524" height="7.43524" rx="2" transform="rotate(-43.4367 1463.35 73.894)" fill="#D9D9D9"/>
<rect x="833.472" y="15.7065" width="4.7342" height="4.7342" rx="2" transform="rotate(-43.4367 833.472 15.7065)" fill="#D9D9D9"/>
<rect x="29.2451" y="46.0706" width="7.43524" height="7.43524" rx="2" transform="rotate(-43.4367 29.2451 46.0706)" fill="#D9D9D9"/>
<rect x="1475.25" y="111.07" width="7.43524" height="7.43524" rx="2" transform="rotate(-43.4367 1475.25 111.07)" fill="#D9D9D9"/>
<rect x="214.359" y="280.937" width="7.43524" height="7.43524" rx="2" transform="rotate(-60.3933 214.359 280.937)" fill="#D9D9D9"/>
<rect x="1679" y="215.919" width="7.43524" height="7.43524" rx="2" transform="rotate(-60.3933 1679 215.919)" fill="#D9D9D9"/>
<rect x="841.047" y="39.3774" width="4.7342" height="4.7342" rx="2" transform="rotate(-43.4367 841.047 39.3774)" fill="#D9D9D9"/>
<rect x="1242.95" y="28.4736" width="6.09588" height="6.09588" rx="2" transform="rotate(-43.4367 1242.95 28.4736)" fill="#D9D9D9"/>
</svg>
